# xmcd CD database file
#
# Track frame offsets:
#	187
#	22537
#	48142
#	76192
#	93802
#	118112
#	139482
#	159110
#
# Disc length: 2424 seconds
#
# Revision: 1
# Processed by: cddbd v1.5.1PL0 Copyright (c) Steve Scherf et al.
# Submitted via: CDex 1.51
#
DISCID=4d097608
DTITLE=Red Garland - The Nearness Of You
DYEAR=1961
DGENRE=Jazz
TTITLE0=Why Was I Born?
TTITLE1=The Nearness Of You
TTITLE2=Where Or When
TTITLE3=Long Ago And Far Away
TTITLE4=I Got It Bad And That Ain't Good
TTITLE5=Don't Worry About Me
TTITLE6=Lush Life
TTITLE7=All Alone
EXTD=YEAR: 1961
EXTT0=
EXTT1=
EXTT2=
EXTT3=
EXTT4=
EXTT5=
EXTT6=
EXTT7=
PLAYORDER=
